<svg width="84" height="95" viewBox="0 0 84 95" fill="none" xmlns="http://www.w3.org/2000/svg">
<path d="M40 45L39 42.6364M39 42.6364L36.9046 37.6835C35.3079 33.9095 34.1924 29.9496 33.5846 25.897C33.1957 23.3046 33.0488 20.6817 33.1458 18.0621L33.2772 14.5165C33.4214 10.6227 34.8911 6.89484 37.4431 3.95029L38.2932 2.96943C39.3772 1.7186 40.9509 1 42.6061 1C44.7264 1 46.7064 2.05967 47.8826 3.82386L48.335 4.50257C50.0814 7.12213 51.1139 10.1521 51.3305 13.2929L51.4159 14.5307C51.8025 20.136 51.2316 25.7661 49.7279 31.1797L49.5 32L44 45L47.2362 39.6833C49.7141 35.6125 53.0699 32.1466 57.0586 29.5386L60.8457 27.0624C62.9307 25.6992 65.2492 24.7323 67.685 24.2104C69.8743 23.7412 72.1337 23.7001 74.3387 24.0892L76.169 24.4122C78.2645 24.782 80.0611 26.1222 81.0127 28.0254L81.6846 29.3691C82.5053 31.0107 82.4427 32.9554 81.5179 34.5407C80.1935 36.8111 78.3243 38.7157 76.0791 40.0823L73.2977 41.7753C69.7825 43.915 65.9905 45.5626 62.0278 46.6722C57.6963 47.885 53.2193 48.5 48.7212 48.5H46L50.8965 49.5308C53.9441 50.1724 56.8634 51.318 59.534 52.9204L63.8082 55.4849C66.5945 57.1567 69.1916 59.1254 71.554 61.3565L75.0365 64.6455C76.3139 65.852 77.1851 67.4254 77.5297 69.1484L77.6544 69.7718C77.8775 70.8875 77.6966 72.0461 77.1441 73.0406C76.1294 74.8672 74.2041 76 72.1146 76H69.4913C68.5055 76 67.5282 75.8185 66.6081 75.4647L66.3485 75.3648C63.1398 74.1307 60.166 72.3566 57.5559 70.1193C55.5247 68.3783 53.6902 66.4203 52.0851 64.2801L48.5 59.5L44 51L47.0443 58.6108C49.0034 63.5084 50.2058 68.6756 50.6104 73.9349L51 79V81.616C51 84.1799 50.4923 86.7185 49.5061 89.0852L49.4579 89.2009C48.8318 90.7037 47.798 92.0014 46.4733 92.9477C45.5151 93.6321 44.367 94 43.1895 94H42.9253C41.0523 94 39.2559 93.2559 37.9315 91.9315L35.6431 89.6431C35.5483 89.5483 35.4694 89.4389 35.4095 89.319C34.1537 86.8075 33.5 84.0382 33.5 81.2303V76.3083C33.5 72.1121 33.8952 67.9252 34.6804 63.8031C35.2247 60.9455 36.1223 58.1666 37.3524 55.5305L39 52L33.8806 58.4846C32.297 60.4905 30.5416 62.3585 28.5347 63.9407C26.9945 65.1549 25.1043 66.56 23.5 67.5C21.7944 68.4993 19.4648 69.528 17.603 70.2919C15.5638 71.1286 13.3727 71.5 11.1685 71.5H9.04562C7.06868 71.5 5.14506 70.8588 3.5635 69.6726C2.55843 68.9188 1.87513 67.8132 1.65039 66.5771L1.49918 65.7455C1.18267 64.0047 1.64365 62.2066 2.84182 60.9047C4.04534 59.597 5.64023 57.9813 7 57C10.0457 54.8021 15.5 52.5 15.5 52.5C15.5 52.5 23.545 49.1741 27 48.5C30.0724 47.9006 35 48 35 48H38C38 48 30.8181 47.4605 26.5 46C22.115 44.5169 16 40.5 16 40.5L9.77412 35.6576C7.9479 34.2373 6.46296 32.4259 5.4283 30.3566L5.08446 29.6689C4.08226 27.6645 4.05206 25.2855 4.97939 23.2453C5.61292 21.8516 6.89851 20.8366 8.40481 20.5628L9.27126 20.4052C10.7374 20.1387 12.2453 20.2129 13.6781 20.6223C16.8704 21.5344 19.8884 22.9719 22.6083 24.8758L22.8309 25.0316C26.5953 27.6667 30.0131 30.7652 33.0035 34.2541L34.5 36L39 42.6364Z" stroke="#C78268" stroke-width="2"/>
<circle cx="42" cy="48" r="4" stroke="#C78268" stroke-width="2"/>
</svg>
