<svg width="58" height="75" viewBox="0 0 58 75" fill="none" xmlns="http://www.w3.org/2000/svg">
<path d="M0.186267 72.9188C-0.134742 73.3682 -0.0306508 73.9927 0.418762 74.3137C0.868174 74.6347 1.49272 74.5307 1.81373 74.0812L1 73.5L0.186267 72.9188ZM6.5 43.5L5.50453 43.405L6.5 43.5ZM11.5 26L10.6333 25.5011L10.6333 25.5011L11.5 26ZM27.5 11L26.9524 10.1633L26.9524 10.1633L27.5 11ZM55.5 26L56.4825 26.1863L55.5 26ZM48 46.5L48.8089 47.0879L48 46.5ZM34 58.5L33.5315 57.6165L33.5315 57.6165L34 58.5ZM40.7241 25.1897C41.105 24.7897 41.0896 24.1567 40.6897 23.7759C40.2897 23.395 39.6567 23.4104 39.2759 23.8103L40 24.5L40.7241 25.1897ZM29.8507 26.5257C30.141 26.0559 29.9955 25.4397 29.5257 25.1493C29.0559 24.859 28.4397 25.0045 28.1493 25.4743L29 26L29.8507 26.5257ZM23.5 36L24.4117 36.4109L23.5 36ZM54.4514 1.2219L54.6649 2.19884L54.4514 1.2219ZM55.6151 2.07413L54.6201 2.17464L55.6151 2.07413ZM1 73.5L1.81373 74.0812L9.31373 63.5812L8.5 63L7.68627 62.4188L0.186267 72.9188L1 73.5ZM8.5 63C9.47464 62.7762 9.47465 62.7763 9.47465 62.7763C9.47464 62.7762 9.47463 62.7762 9.4746 62.7761C9.47455 62.7758 9.47445 62.7754 9.47432 62.7748C9.47404 62.7736 9.47361 62.7717 9.47301 62.7691C9.47182 62.7639 9.46999 62.7558 9.46754 62.745C9.46264 62.7233 9.45527 62.6906 9.44561 62.6473C9.4263 62.5606 9.39787 62.4316 9.36181 62.2641C9.28968 61.9292 9.1871 61.4408 9.0661 60.8303C8.824 59.6089 8.50867 57.9014 8.216 55.9587C7.62713 52.0501 7.14396 47.2766 7.49547 43.595L6.5 43.5L5.50453 43.405C5.12845 47.3439 5.64528 52.3204 6.23831 56.2567C6.53659 58.2365 6.85768 59.9751 7.10427 61.2192C7.22761 61.8415 7.33244 62.3407 7.40663 62.6852C7.44374 62.8575 7.47319 62.9911 7.49348 63.0822C7.50362 63.1277 7.51148 63.1626 7.51686 63.1864C7.51954 63.1983 7.52161 63.2074 7.52304 63.2136C7.52375 63.2167 7.5243 63.2192 7.52469 63.2209C7.52488 63.2217 7.52504 63.2224 7.52515 63.2229C7.52521 63.2231 7.52526 63.2233 7.52529 63.2235C7.52533 63.2236 7.52536 63.2238 8.5 63ZM6.5 43.5L7.49547 43.595C8.16454 36.5874 8.92196 32.4835 12.3667 26.4989L11.5 26L10.6333 25.5011C6.98666 31.8367 6.18656 36.2616 5.50453 43.405L6.5 43.5ZM11.5 26L12.3667 26.4989C16.5078 19.3044 20.8771 16.5293 28.0476 11.8367L27.5 11L26.9524 10.1633C19.7897 14.8507 15.0375 17.8496 10.6333 25.5011L11.5 26ZM27.5 11L28.0476 11.8367C32.0924 9.18975 37.7204 6.9975 42.8929 5.35079C48.0479 3.70969 52.6724 2.63433 54.6649 2.19884L54.4514 1.2219L54.2379 0.244965C52.2116 0.687821 47.5217 1.77829 42.2862 3.44504C37.0684 5.10618 31.2301 7.36381 26.9524 10.1633L27.5 11ZM55.6151 2.07413L54.6201 2.17464C54.9916 5.85186 56.0171 17.9041 54.5175 25.8137L55.5 26L56.4825 26.1863C58.0443 17.9484 56.9776 5.61296 56.61 1.97363L55.6151 2.07413ZM55.5 26L54.5175 25.8137C52.9288 34.1935 52.0571 39.2165 47.1911 45.9121L48 46.5L48.8089 47.0879C53.9662 39.9916 54.8954 34.5576 56.4825 26.1863L55.5 26ZM48 46.5L47.1911 45.9121C43.0552 51.6029 39.7713 54.3074 33.5315 57.6165L34 58.5L34.4685 59.3835C40.952 55.9451 44.478 53.0472 48.8089 47.0879L48 46.5ZM34 58.5L33.5315 57.6165C29.247 59.8887 23.0383 61.0009 17.799 61.5317C15.1987 61.7952 12.8729 61.9124 11.1975 61.9636C10.3603 61.9892 9.68652 61.9983 9.22343 62.001C8.99191 62.0023 8.81312 62.0021 8.69296 62.0015C8.63288 62.0012 8.58747 62.0009 8.55745 62.0006C8.54244 62.0004 8.53128 62.0003 8.52407 62.0002C8.52046 62.0002 8.51784 62.0001 8.51622 62.0001C8.51541 62.0001 8.51484 62.0001 8.51453 62.0001C8.51437 62.0001 8.51433 62.0001 8.51425 62.0001C8.51427 62.0001 8.51435 62.0001 8.5 63C8.48565 63.9999 8.48586 63.9999 8.48613 63.9999C8.4863 63.9999 8.48663 63.9999 8.48698 63.9999C8.48768 63.9999 8.48863 63.9999 8.48983 64C8.49222 64 8.49562 64 8.50001 64.0001C8.50879 64.0002 8.52153 64.0003 8.53814 64.0005C8.57136 64.0008 8.62006 64.0012 8.6835 64.0015C8.81036 64.0021 8.99622 64.0023 9.23513 64.0009C9.71291 63.9981 10.4032 63.9888 11.2586 63.9627C12.9686 63.9104 15.3427 63.7909 18.0007 63.5216C23.278 62.9868 29.8193 61.849 34.4685 59.3835L34 58.5ZM8.5 63L9.33571 63.5492L20.8357 46.0492L20 45.5L19.1643 44.9508L7.66429 62.4508L8.5 63ZM20 45.5L20.7241 46.1897L40.7241 25.1897L40 24.5L39.2759 23.8103L19.2759 44.8103L20 45.5ZM20 45.5C20.9529 45.8032 20.9529 45.8032 20.9529 45.8032C20.953 45.8031 20.953 45.8031 20.953 45.803C20.953 45.8029 20.9531 45.8027 20.9532 45.8024C20.9534 45.8017 20.9537 45.8007 20.9541 45.7994C20.955 45.7968 20.9563 45.7927 20.958 45.7872C20.9615 45.7764 20.9667 45.76 20.9737 45.7384C20.9875 45.6951 21.0082 45.6308 21.0352 45.5476C21.0891 45.3811 21.168 45.1386 21.2679 44.8362C21.4678 44.2312 21.7512 43.3871 22.0849 42.4314C22.7551 40.512 23.6183 38.1713 24.4117 36.4109L23.5 36L22.5883 35.5891C21.7572 37.4333 20.8704 39.8426 20.1967 41.7721C19.8585 42.7407 19.5714 43.5958 19.3689 44.2088C19.2676 44.5154 19.1874 44.7617 19.1324 44.9317C19.1048 45.0167 19.0836 45.0826 19.0692 45.1275C19.0621 45.1499 19.0566 45.1671 19.0528 45.1787C19.051 45.1845 19.0496 45.189 19.0486 45.192C19.0481 45.1935 19.0477 45.1947 19.0475 45.1955C19.0474 45.1959 19.0473 45.1962 19.0472 45.1964C19.0472 45.1966 19.0471 45.1967 19.0471 45.1967C19.0471 45.1968 19.0471 45.1968 20 45.5ZM23.5 36L24.4117 36.4109C25.3061 34.4264 26.6605 31.9618 27.8035 29.9749C28.3727 28.9856 28.8852 28.1221 29.2553 27.5061C29.4403 27.1982 29.5896 26.9524 29.6924 26.7839C29.7438 26.6996 29.7836 26.6347 29.8104 26.5911C29.8239 26.5692 29.834 26.5527 29.8408 26.5417C29.8442 26.5362 29.8467 26.5321 29.8484 26.5295C29.8492 26.5281 29.8498 26.5271 29.8502 26.5265C29.8504 26.5262 29.8505 26.526 29.8506 26.5258C29.8506 26.5258 29.8507 26.5257 29.8507 26.5257C29.8507 26.5257 29.8507 26.5257 29 26C28.1493 25.4743 28.1493 25.4744 28.1492 25.4744C28.1492 25.4745 28.1491 25.4746 28.1491 25.4747C28.1489 25.4749 28.1487 25.4753 28.1485 25.4757C28.148 25.4765 28.1473 25.4777 28.1463 25.4792C28.1444 25.4822 28.1417 25.4867 28.1381 25.4926C28.1308 25.5043 28.1202 25.5216 28.1063 25.5443C28.0784 25.5895 28.0376 25.6561 27.9851 25.7422C27.8802 25.9142 27.7285 26.1639 27.541 26.4761C27.166 27.1002 26.6468 27.9749 26.0699 28.9776C24.9208 30.9749 23.5252 33.5102 22.5883 35.5891L23.5 36ZM54.4514 1.2219L54.6649 2.19884C54.6658 2.19864 54.6604 2.19968 54.6517 2.19778C54.644 2.19608 54.6375 2.19291 54.6328 2.18939C54.628 2.18591 54.6245 2.18183 54.6222 2.17777C54.6194 2.17298 54.6198 2.17082 54.6201 2.17464L55.6151 2.07413L56.61 1.97363C56.4926 0.811298 55.404 -0.00990967 54.2379 0.244965L54.4514 1.2219Z" fill="#C78268"/>
</svg>
