<svg width="71" height="69" viewBox="0 0 71 69" fill="none" xmlns="http://www.w3.org/2000/svg">
<path d="M40.1521 59.2222L57.7485 66.0453C59.2892 66.6427 60.8486 65.22 60.3946 63.6312L55.5325 46.6137C54.901 44.4035 55.5878 42.0267 57.3009 40.494L68.6025 30.382C70.5185 28.6676 69.5313 25.4949 66.9809 25.1703L50.3381 23.0521C47.6837 22.7143 45.4542 20.8929 44.5937 18.3592L39.624 3.72617C38.7264 1.08331 35.0224 0.990965 33.9943 3.58583L27.9421 18.8604C27.046 21.1219 25.04 22.7561 22.644 23.1765L4.29151 26.3962C1.78917 26.8352 0.931217 29.9915 2.86697 31.6369L15.298 42.2033C16.9646 43.6199 17.7283 45.8314 17.2909 47.9747L13.7876 65.1409C13.4603 66.7445 15.0927 68.0409 16.5805 67.3589L33.9267 59.4086C35.8914 58.5081 38.137 58.4409 40.1521 59.2222Z" stroke="#C78268" stroke-width="2"/>
</svg>
