<svg width="203" height="91" viewBox="0 0 203 91" fill="none" xmlns="http://www.w3.org/2000/svg">
<path d="M0 20C0 8.95429 8.95431 0 20 0H180.658C191.704 0 200.658 8.95431 200.658 20V62.3015L118.723 84.5722H20C8.95429 84.5722 0 75.6179 0 64.5722V20Z" fill="#adc0c9"/>
<path d="M188.284 62.2882C183.433 60.9491 179.924 58.637 179.924 58.637C179.924 58.637 176.174 65.0552 165.543 69.6314C149.825 76.3972 118.389 84.5734 118.389 84.5734C118.389 84.5734 158.656 80.3833 175.911 75.5515C190.795 71.3835 200.765 62.2882 200.765 62.2882C200.765 62.2882 194.406 63.9777 188.284 62.2882Z" fill="#7a888eff"/>
</svg>
