<svg width="359" height="208" viewBox="0 0 359 208" fill="none" xmlns="http://www.w3.org/2000/svg">
<g filter="url(#filter0_d_193_4)">
<path d="M29 45C29 33.9543 37.9543 25 49 25H309C320.046 25 329 33.9543 329 45V135.5L206.5 175H49C37.9543 175 29 166.046 29 155V45Z" fill="#CCC2D8"/>
<path d="M310.5 135.476C303.247 133.101 298 129 298 129C298 129 292.395 140.384 276.5 148.5C253 160.5 206.001 175.002 206.001 175.002C206.001 175.002 266.203 167.57 292 159C314.254 151.608 329.16 135.476 329.16 135.476C329.16 135.476 319.652 138.473 310.5 135.476Z" fill="#898193"/>
</g>
<defs>
<filter id="filter0_d_193_4" x="0" y="0" width="358.16" height="208.001" filterUnits="userSpaceOnUse" color-interpolation-filters="sRGB">
<feFlood flood-opacity="0" result="BackgroundImageFix"/>
<feColorMatrix in="SourceAlpha" type="matrix" values="0 0 0 0 0 0 0 0 0 0 0 0 0 0 0 0 0 0 127 0" result="hardAlpha"/>
<feOffset dy="4"/>
<feGaussianBlur stdDeviation="14.5"/>
<feComposite in2="hardAlpha" operator="out"/>
<feColorMatrix type="matrix" values="0 0 0 0 0 0 0 0 0 0 0 0 0 0 0 0 0 0 0.25 0"/>
<feBlend mode="normal" in2="BackgroundImageFix" result="effect1_dropShadow_193_4"/>
<feBlend mode="normal" in="SourceGraphic" in2="effect1_dropShadow_193_4" result="shape"/>
</filter>
</defs>
</svg>
