<svg width="1012" height="847" viewBox="0 0 1012 847" fill="none" xmlns="http://www.w3.org/2000/svg">
<defs>
    <clipPath id="photoClip">
        <path d="M306.999 56.9998C345 43.724 539 20.1946 563 30.0001C597 43.8913 695 142 695 142C695 142 800.192 250.001 807 264C819.954 290.638 822.634 433.194 822.962 454.37C822.99 456.181 822.765 457.888 822.301 459.639L801 540L779 623C779 623 727.612 713.25 672.999 751C657 762.059 424.999 789 424.999 789C424.999 789 290.999 800.652 238.999 779C194.999 760.678 63.5031 557.001 59.0002 543C46.9998 505.689 46.2403 355.002 51.0001 333C54.0286 319.002 100.233 184.999 118.999 163C137.766 141 281 66.0824 306.999 56.9998Z"/>
    </clipPath>
</defs>

<!-- Aquí irá la imagen que quieres recortar -->
<image href="assets/salma.png" width="100%" height="100%" preserveAspectRatio="xMidYMid slice" clip-path="url(#photoClip)" />

<!-- Los bordes decorativos -->
<path d="M306.999 56.9998C345 43.724 539 20.1946 563 30.0001C597 43.8913 695 142 695 142C695 142 800.192 250.001 807 264C819.954 290.638 822.634 433.194 822.962 454.37C822.99 456.181 822.765 457.888 822.301 459.639L801 540L779 623C779 623 727.612 713.25 672.999 751C657 762.059 424.999 789 424.999 789C424.999 789 290.999 800.652 238.999 779C194.999 760.678 63.5031 557.001 59.0002 543C46.9998 505.689 46.2403 355.002 51.0001 333C54.0286 319.002 100.233 184.999 118.999 163C137.766 141 281 66.0824 306.999 56.9998Z" stroke="white" stroke-width="18"/>
<path d="M264.686 44.4141L134.103 110.691C112.311 121.752 95.9532 141.199 88.7897 164.565L19.1425 391.731C2.78329 445.09 13.8221 503.085 48.6399 546.702L52.443 551.466C73.155 577.413 86.7823 608.163 95.2493 640.265C106.878 684.355 127.499 746.587 157 777C174.144 794.673 389.221 820.812 467.637 829.816C486.488 831.981 505.483 831.308 524.164 827.975L678.158 800.501C697.731 797.009 714.795 785.126 724.859 767.98L804.276 632.677C812.656 618.399 816.879 602.203 821.398 586.276C822.155 583.61 823.019 581.106 824 579C829.996 566.121 839.433 552.414 848.432 540.776C863.29 521.559 873 498.432 873 474.141L873 354.888C873 328.78 865.951 303.156 852.597 280.722L767.428 137.639C754.591 116.072 737.809 97.1149 717.959 81.7563L661.287 37.9072C628.963 12.8964 588.379 1.02802 547.672 4.68122L337.327 23.5583C312.008 25.8306 287.354 32.9088 264.686 44.4141Z" stroke="white" stroke-width="8"/>
<path d="M639 766C546 788 502.886 800.74 424 823L302 807L247 788L441 783L639 766Z" fill="white" stroke="white"/>
<path d="M779 636.999L815 590.999C815 590.999 841.588 533.449 848.999 493.999C852.193 477 820 280.999 820 280.999L820 463.999L779 636.999Z" fill="white" stroke="white"/>
<path d="M744.5 151C766.908 175.5 814.351 244 816.001 251C818.445 261.375 820 278 820 278L694.5 148.5L564 24.0006C564 24.0006 604.268 42.0663 628.5 56.5005C651.5 70.2005 734.896 140.5 744.5 151Z" fill="white" stroke="white"/>
<path d="M827.502 836.5C812.911 792 801.004 792.5 795.502 791C790 789.5 773.001 794 773.001 802.5C773.001 807.915 776.287 811.42 778.001 812.5C784.905 816.849 794.501 809.233 798.002 807C801.503 804.767 810.385 797.027 815.502 788.5C819.794 781.347 820.74 776.529 823.002 768.5C827.527 752.435 829 729 829 729C829 729 831.074 708.335 827.502 698C827.502 698 825.5 685.911 815.502 680C812.5 678.225 803.5 672 798.002 677C795.854 678.953 795.671 681.102 795.502 684C795.21 689 801.291 694.236 808 697.5C813.167 700.014 817.314 701.315 823.002 700.5C835.057 698.773 841.838 680 843.502 677C845.166 674 850.186 659.63 852.502 648C853.964 640.66 855.002 629 855.002 629M846.002 758C837.02 748.627 832.375 743.982 823.002 735M823.002 735C817.983 732.378 813.833 732.091 808.502 734C801.742 736.42 797.146 740.011 795.502 747C795.33 747.732 794.738 751.42 796.5 754C797.183 755 799.076 756.955 802 757.5C809.5 758.899 821.963 749.866 823.002 739C823.151 737.445 823.151 736.555 823.002 735Z" stroke="white" stroke-width="5" stroke-linecap="round"/>
<path d="M926 469L931.419 466.471C937.562 463.604 942.343 458.452 944.742 452.112L948 443.5M926 469L927.193 469.531C935.129 473.058 941.523 479.334 945.195 487.204L946.5 490M926 469L931.419 466.471C937.562 463.604 942.343 458.452 944.742 452.112L948 443.5M926 469L927.193 469.531C935.129 473.058 941.523 479.334 945.195 487.204L946.5 490M948 443.5L950.969 452.655C952.905 458.624 957.196 463.543 962.848 466.271L968.5 469M948 443.5L950.969 452.655C952.905 458.624 957.196 463.543 962.848 466.271L968.5 469M968.5 469L961.937 471.716C956.818 473.834 952.636 477.728 950.159 482.682L946.5 490M968.5 469L961.937 471.716C956.818 473.834 952.636 477.728 950.159 482.682L946.5 490M19 843.5C19 843.5 20.3183 827.301 23.5 817.5C27.1674 806.203 30.0017 799.711 37.5 790.5C38.6102 789.136 49.4633 776.675 54 775.5C58.5367 774.325 61.7235 773.584 66 775.5C70.2913 777.423 73.0783 779.889 74 784.5C74.8835 788.921 73.626 792.252 70.5 795.5C67.7087 798.4 65.0096 799.143 61 799.5C55.8948 799.955 52.9122 798.108 48.5 795.5C44.5 793.136 37.5 781.997 34.5 775.5C32.884 772 28.166 761.5 28.5 753.5C28.6996 748.717 28.9302 745.816 31 741.5C33.0698 737.184 36.4531 732.803 42 730C45.2558 728.355 48.5 727.311 51 727.5C55.4443 727.835 59.5922 728.771 61 733C62.6083 737.831 59.5 744 55.5 745.5C53.6714 746.186 49.32 747.772 44.5 747C40.4742 746.355 38.0468 746.011 34.5 744C28.4514 740.571 26.0106 736.484 23.5001 730C20.3979 721.988 20.9702 716.211 23.5001 708C25.276 702.236 27.1817 699.168 31 694.5C35.3055 689.236 40.8942 684.373 44.5 683.5C48.1057 682.627 50.4854 682.312 54 683.5C57.1825 684.576 59.7061 685.4 61 688.5C62.8781 693 57.8909 697.946 57 699C53.504 703.135 49.8991 704.588 44.5 705C40.1075 705.335 36.7754 705.446 33.5 702.5C29.3707 698.786 30.1154 693.983 31 688.5C31.2155 687.164 37.3271 675.267 42 669.5C43.6206 667.5 52.5175 658.206 61 653.5C67.2153 650.052 78 647 78 647" stroke="white" stroke-width="6" stroke-linecap="round"/>
<path d="M135.123 818.41L141.686 815.694L136.034 812.966C130.382 810.237 126.091 805.318 124.155 799.349L121.186 790.194L117.927 798.806C115.528 805.146 110.748 810.299 104.605 813.165L99.1858 815.694L100.379 816.225C108.315 819.752 114.708 826.029 118.381 833.898L119.686 836.694L123.345 829.377C125.822 824.422 130.004 820.528 135.123 818.41Z" stroke="white" stroke-width="6"/>
<path d="M44.1225 166.41L50.6858 163.694L45.0335 160.966C39.3821 158.237 35.0909 153.318 33.1549 147.349L30.1858 138.194L26.9273 146.806C24.5284 153.146 19.748 158.299 13.6051 161.165L8.18579 163.694L9.37919 164.225C17.315 167.752 23.7085 174.029 27.381 181.898L28.6859 184.694L32.3447 177.377C34.8219 172.422 39.0041 168.528 44.1225 166.41Z" stroke="white" stroke-width="6"/>
<path d="M818.674 115.654L812.426 89.8828C811.972 88.0097 814.17 86.6413 815.65 87.8752L827.84 98.0336C828.527 98.6055 829.509 98.6529 830.247 98.1496L846.516 87.0574C848.052 86.01 850.061 87.4423 849.572 89.2361L842.39 115.571C842.158 116.42 842.509 117.32 843.254 117.789L863.135 130.308C864.833 131.376 864.076 134 862.07 134H838.313C837.516 134 836.795 134.473 836.478 135.205L826.694 157.783C825.901 159.612 823.214 159.283 822.886 157.317L819.279 135.671C819.118 134.707 818.283 134 817.306 134H800.498C798.529 134 797.745 131.454 799.373 130.346L817.855 117.779C818.544 117.31 818.87 116.464 818.674 115.654Z" stroke="white" stroke-width="8"/>
<path d="M997.123 166.41L1003.69 163.694L998.034 160.966C992.382 158.237 988.091 153.318 986.155 147.349L983.186 138.194L979.927 146.806C977.528 153.146 972.748 158.299 966.605 161.165L961.186 163.694L962.379 164.225C970.315 167.752 976.708 174.029 980.381 181.898L981.686 184.694L985.345 177.377C987.822 172.422 992.004 168.528 997.123 166.41Z" stroke="white" stroke-width="6"/>
</svg>
