<svg width="719" height="435" viewBox="0 0 719 435" fill="none" xmlns="http://www.w3.org/2000/svg">
<path d="M592 243C584.262 253.032 576.5 271.5 576.5 271.5L579 244L582 236C582 236 584.921 218.962 586.5 208C587.791 199.034 589.34 194.057 589.5 185C589.635 177.363 589.191 173.044 588 165.5C586.294 154.69 583.885 148.907 580.5 138.5C574.623 120.431 570.071 110.701 562 93.4999L561.773 93.0165C556.61 82.0111 553.635 75.6704 547.5 64.9999C541.722 54.9511 531.5 39.9999 531.5 39.9999C531.5 39.9999 526.361 31.566 529.5 27.9999C532.109 25.0358 535.578 26.042 539.5 26.4999C545.587 27.2105 548.087 30.8374 553 34.4999C562.426 41.5259 566.055 47.5146 573 56.9999C579.727 66.1861 583.144 71.7016 588 81.9999C592.689 91.9438 595.298 97.7288 597.5 108.5C599.15 116.571 599.135 121.27 599.5 129.5C599.821 136.717 599.5 148 599.5 148L604.5 120C604.5 120 610.724 88.2172 620 69.9999C626.389 57.4523 629.107 48.9225 640 39.9999C650.354 31.519 661.927 17.1466 671.5 26.4999C675.061 29.979 675.919 33.1405 677 37.9999C678.446 44.4999 672.572 54.7227 668.5 64.9999C661.354 83.0378 654.457 91.8479 644.5 108.5C634.355 125.467 617 151 617 151C617 151 601.76 177.557 595.5 196C591.801 206.898 589.734 213.122 588 224.5C587.055 230.704 586.5 240.5 586.5 240.5L589.5 234.5C589.5 234.5 599.476 211.342 609 198.5C622.842 179.836 633.031 169.998 653.5 159C671.953 149.085 696 145.5 696 145.5C696 145.5 715.233 141.137 717.5 145.5C719.041 148.466 717.212 150.734 716.5 154C715.119 160.331 696.372 176.953 680.5 188C665.091 198.725 637.5 209.5 637.5 209.5C637.5 209.5 605.476 225.528 592 243Z" fill="#F8D1A8"/>
<path d="M691.918 245C693.488 244.998 694.344 246.713 693.435 247.993C684.278 260.877 646.281 312.777 612 336.555C588.608 352.78 547 369.555 547 369.555L582 309.555C582 309.555 600.767 276.708 620 263.555C644.946 246.495 680.61 245.015 691.918 245ZM639.5 281.055C639.43 281.108 614.204 300.195 600 314.555C591.538 323.109 579.5 337.555 579.5 337.555C579.5 337.555 594.843 324.009 603.5 316.055C618.525 302.249 639.435 281.121 639.5 281.055Z" fill="#A5B2A6" fill-opacity="0.66"/>
<path d="M521 81C536.203 99 576 202.989 576 229C576 341 512 373 512 373C512 373 395.784 443.236 323 429C280.998 420.785 256.6 409.729 224 382C184.615 348.499 178.212 298.989 165 249C157.335 220 152.857 168 179 138C188.585 127 208 105.563 213 102C267.924 62.86 273 4.30449 379 4.00004C443.115 3.81589 479.629 32.0186 521 81Z" stroke="#8CBEB4" stroke-width="8"/>
<path d="M165.5 112C180.935 93.9391 205.911 94.4428 225.5 81C239.5 71.3927 252.431 45.1697 276 30C287.749 22.4382 308 14 308 14L284 33.5L206.5 107L165.5 157.5L159 207L165.5 254L181.5 324.5L173 313.5C173 313.5 152.696 290.02 149 268.5C145.605 248.735 153 213 153 213V148.5C153 148.5 154.073 125.371 165.5 112Z" fill="#8CBEB4"/>
<path d="M159.501 360.5C169.297 376.363 194.001 393.5 194.001 393.5C194.001 393.5 179.322 386.715 169.501 383.5C155.632 378.96 147.583 374.968 133.001 375.5C117.449 376.067 109.873 382.919 95.0006 387.5C82.7211 391.282 73.5 397 63.5006 397C53.5012 397 43.2855 393.421 41.5006 383.5C40.184 376.182 42.4856 369.583 49.0006 366C58.9024 360.554 66.8055 359.353 78.6474 357.554L79.0006 357.5C93.479 355.299 116.501 357.5 116.501 357.5L95.0006 351L63.5006 348C63.5006 348 35.5 348 21.0006 341.5C10.9214 336.982 0.603538 332.539 1.00061 321.5C1.27517 313.867 3.64604 311.737 10.0006 307.5C16.3551 303.263 30.0043 305.041 41.5006 307.5C61.4915 311.775 89.0006 329.5 89.0006 329.5L143.001 357.5L85.5006 316C85.5006 316 58.7945 297.962 52.0006 280C45.6454 263.198 39.6362 247.032 52.0006 234C60.3732 225.175 69.4191 222.582 81.5006 224C96.4018 225.749 101.253 237.042 111.501 248C121.748 258.958 139.124 297.852 145.501 316C152.001 334.5 149.928 345 159.501 360.5Z" fill="#FFEFD1"/>
<path d="M509.501 366C484.343 385.808 463.287 385.108 433.001 395.5C422 399.275 379.946 422.709 343.501 422C309.296 421.335 288.608 414.263 260.001 395.5C237.371 380.657 227.47 367.849 211.501 346C192.951 320.62 183.543 304.391 175.501 274C163.497 228.64 176.41 163 187 145C199.883 123.104 210.059 126.472 227.501 108C246.493 87.8856 252.361 71.5873 274.501 55C304.625 32.4304 326.86 20.4999 364.501 20.5C391 20.5001 463.395 35.8714 503.501 79C528.781 106.185 536.355 127.751 548.001 163C561.7 204.463 570.433 231.256 561.501 274C553.059 314.398 541.926 340.469 509.501 366Z" stroke="#3C0404"/>
</svg>
