<svg width="505" height="515" viewBox="0 0 505 515" fill="none" xmlns="http://www.w3.org/2000/svg">
<path d="M9.04943 31.474C10.757 21.9402 19.0506 15 28.7362 15H42.5L92.493 21.1312C94.4863 21.3757 96.505 21.3185 98.4813 20.9617L129.737 15.3182C130.91 15.1065 132.099 15 133.291 15H146C158.49 15 167.924 26.3213 165.672 38.6066L159.688 71.2474C159.233 73.7268 159.252 76.2697 159.742 78.7423L169.164 126.282C169.715 129.062 169.669 131.928 169.029 134.689L166.065 147.469C163.754 157.436 154.294 164.052 144.139 162.802L133.449 161.486C130.842 161.165 128.197 161.361 125.665 162.063L89.4854 172.088C88.4966 172.362 87.4882 172.56 86.4691 172.679L46.4753 177.359C42.8919 177.779 39.2618 177.221 35.9696 175.745L19.874 168.53C14.8486 166.277 10.9745 162.052 9.1652 156.85L1.11007 133.691C0.37523 131.579 0 129.358 0 127.121V83.7769C0 82.5946 0.104833 81.4147 0.313267 80.2509L9.04943 31.474Z" fill="#D9D9D9"/>
<path d="M5.5576 368.406C7.345 355.993 19.983 348.269 31.8446 352.339L49.3648 358.351C55.9689 360.617 63.2767 359.275 68.6448 354.81L100.316 328.47C106.49 323.335 115.136 322.391 122.272 326.072L143.213 336.873C151.782 341.293 155.978 351.198 153.192 360.428L152.15 363.877C150.763 368.472 151.075 373.412 153.028 377.797L168.936 413.501C171.208 418.6 171.245 424.416 169.039 429.544L156.59 458.481C154.911 462.382 154.584 466.731 155.658 470.84C158.993 483.591 148.692 495.799 135.561 494.658L99.1661 491.493C95.4621 491.171 91.7417 491.887 88.4225 493.562L50.4951 512.703C44.0165 515.973 36.2752 515.477 30.2671 511.407L16.7521 502.251C11.8399 498.924 8.65869 493.587 8.06831 487.683L0.242673 409.427C0.0814877 407.815 0.116724 406.189 0.347607 404.586L5.5576 368.406Z" fill="#D9D9D9"/>
<path d="M330.758 359.57C335.653 351.411 346.09 348.531 354.477 353.024L359.089 355.494C364.409 358.344 370.732 358.639 376.294 356.297L403.971 344.644C404.989 344.215 406.04 343.872 407.114 343.617L427.362 338.812C432.272 337.647 437.44 338.381 441.832 340.867L454.624 348.108C459.042 350.609 464.245 351.336 469.179 350.142L471.34 349.619C482.725 346.865 494.029 354.44 495.81 366.017L504.023 419.398C504.339 421.453 504.333 423.546 504.004 425.599L494.813 483.043C493.436 491.651 486.642 498.375 478.02 499.664L409.016 509.975C406.69 510.322 404.321 510.257 402.018 509.782L362.525 501.632C351.538 499.365 344.564 488.505 347.074 477.571L355.013 442.979C355.978 438.773 355.557 434.367 353.812 430.42L329.739 375.959C327.395 370.655 327.775 364.542 330.758 359.57Z" fill="#D9D9D9"/>
<path d="M168.354 354.177C170.321 347.815 175.324 342.849 181.7 340.931L222.055 328.789C225.927 327.624 230.062 327.66 233.913 328.892L263.34 338.309C264.775 338.768 266.258 339.064 267.76 339.19L304.907 342.311C314.219 343.094 319.524 353.33 314.793 361.39C312.725 364.912 312.479 369.214 314.13 372.95L339.312 429.92C341.057 433.867 341.478 438.273 340.513 442.479L332.25 478.484C329.868 488.86 319.775 495.552 309.29 493.707L271.716 487.094C267.67 486.382 263.504 486.933 259.782 488.672L219.649 507.426C214.758 509.711 209.152 509.922 204.104 508.012L184.83 500.72C178.676 498.391 174.061 493.184 172.488 486.794L168.593 470.973C167.559 466.771 167.915 462.347 169.609 458.365L182.057 429.095C184.251 423.937 184.179 418.095 181.86 412.992L166.145 378.42C164.119 373.962 163.799 368.916 165.245 364.238L168.354 354.177Z" fill="#D9D9D9"/>
<path d="M342.646 196.867C339.705 187.228 344.395 176.907 353.589 172.782L380.679 160.63C387.083 157.757 394.524 158.452 400.286 162.46L419.136 175.573C423.23 178.421 428.241 179.637 433.185 178.981L463.375 174.98C465.772 174.663 468.206 174.782 470.56 175.333L472.367 175.756C482.584 178.147 489.215 188.028 487.558 198.39L483.135 226.033C482.716 228.651 482.822 231.327 483.447 233.905L497.42 291.543C498.131 294.476 498.169 297.532 497.531 300.482L493.14 320.789C491.525 328.26 485.791 334.158 478.368 335.983L467.625 338.625C462.724 339.83 457.548 339.138 453.136 336.687L439.826 329.292C435.437 326.854 430.291 326.155 425.41 327.336L403.6 332.613C402.535 332.871 401.493 333.215 400.485 333.643L374.474 344.689C368.81 347.094 362.354 346.758 356.97 343.778L352.601 341.359C343.925 336.557 340.097 326.074 343.579 316.79C345.443 311.818 345.263 306.285 343.062 301.452L329.443 271.558C327.239 266.72 327.052 261.203 328.924 256.226L344.104 215.869C345.658 211.739 345.802 207.212 344.514 202.992L342.646 196.867Z" fill="#D9D9D9"/>
<path d="M178.43 29.0159C179.968 20.6276 186.656 14.1372 195.087 12.8512L236.377 6.55266C238.772 6.18726 241.214 6.26019 243.584 6.7679L279.928 14.556C281.306 14.8512 282.71 15 284.119 15H297.222C310.524 15 319.238 28.9212 313.427 40.8864C310.678 46.5454 311.08 53.2283 314.488 58.5164L320.038 67.128C322.29 70.6223 323.397 74.7315 323.205 78.8841L320.601 135.312C320.534 136.765 320.647 138.233 320.932 139.659C323.37 151.848 312.902 162.853 300.636 160.842C297.282 160.292 293.841 160.715 290.72 162.059L268.496 171.633C264.91 173.177 260.952 173.639 257.107 172.96L213.725 165.304C212.577 165.102 211.414 165 210.249 165H198.315C185.558 165 176.061 153.217 178.771 140.751L180.117 134.561C180.7 131.882 180.725 129.113 180.192 126.424L170.742 78.7423C170.252 76.2697 170.233 73.7268 170.688 71.2474L178.43 29.0159Z" fill="#D9D9D9"/>
<path d="M179.277 198.056C175.533 188.402 182.656 178 193.011 178H209.829C210.941 178 212.051 178.093 213.148 178.277L256.301 185.541C260.024 186.167 263.849 185.727 267.332 184.272L289.992 174.802C293.585 173.3 297.54 172.88 301.369 173.594L313.076 175.777C320.404 177.143 326.364 182.472 328.54 189.602L332.014 200.992C333.302 205.212 333.158 209.739 331.604 213.869L316.407 254.271C314.545 259.221 314.72 264.707 316.892 269.528L330.579 299.908C332.769 304.767 332.928 310.299 331.022 315.276L330.379 316.954C327.193 325.273 318.889 330.482 310.013 329.73L268.253 326.191C266.756 326.064 265.278 325.769 263.846 325.311L234.388 315.884C230.552 314.657 226.435 314.616 222.576 315.767L197.356 323.288C186.364 326.567 176.183 316.213 179.646 305.277C180.527 302.493 180.535 299.505 179.667 296.716L168.701 261.466C167.589 257.894 167.502 254.081 168.449 250.462L179.793 207.111C180.578 204.113 180.397 200.945 179.277 198.056Z" fill="#D9D9D9"/>
<path d="M3.3674 199.388C6.87797 187.803 19.7945 181.968 30.808 186.991L33.3917 188.17C36.7326 189.694 40.4287 190.269 44.0747 189.831L86.9028 184.692C87.9659 184.564 89.017 184.351 90.046 184.056L124.385 174.183C127.097 173.403 129.945 173.206 132.739 173.606L148.413 175.845C155.57 176.867 161.618 181.672 164.232 188.413L167.151 195.943C168.678 199.88 168.919 204.199 167.841 208.281L156.96 249.474C156.006 253.086 156.082 256.893 157.181 260.463L167.664 294.533C168.86 298.418 168.843 302.576 167.615 306.452L167.069 308.178C163.358 319.897 150.052 325.526 139.058 320.029L122.674 311.837C115.58 308.29 107.06 309.27 100.957 314.336L69.553 340.401C64.2341 344.816 57.0127 346.171 50.4551 343.985L20.4155 333.972C13.9284 331.809 8.99568 326.483 7.33722 319.849L0.59715 292.889C0.200547 291.302 0 289.673 0 288.038V213.464C0 211.499 0.289616 209.544 0.859512 207.664L3.3674 199.388Z" fill="#D9D9D9"/>
<path d="M332.72 26.4225C335.711 20.5269 341.422 16.4899 347.977 15.6371L399 9L440.851 1.07024C444.542 0.370908 448.356 0.725224 451.855 2.09261L474.509 10.9459C483.487 14.4546 488.685 23.8681 486.872 33.3354L481.881 59.3992C481.302 62.4254 481.429 65.5447 482.254 68.5135L494.935 114.166C495.638 116.697 495.836 119.342 495.516 121.95L492.571 146.007C491.196 157.233 480.409 164.802 469.385 162.276C467.147 161.763 464.834 161.658 462.559 161.967L433.218 165.952C428.254 166.626 423.218 165.413 419.106 162.552L400.212 149.408C394.49 145.428 387.109 144.713 380.73 147.523L359.289 156.965C347.588 162.117 334.124 155.12 331.617 142.583L331.495 141.976C331.166 140.332 331.046 138.653 331.136 136.978L334.158 80.8565C334.38 76.721 333.314 72.6184 331.105 69.1151L326.05 61.0964C322.297 55.1442 321.949 47.658 325.132 41.3829L332.72 26.4225Z" fill="#D9D9D9"/>
</svg>
