<svg width="178" height="183" viewBox="0 0 178 183" fill="none" xmlns="http://www.w3.org/2000/svg">
<path d="M4.35448 27.1767C6.32075 20.8152 11.324 15.8494 17.7 13.931L58.0549 1.78878C61.9272 0.623682 66.0616 0.659722 69.913 1.89215L99.3396 11.3087C100.775 11.7681 102.258 12.0637 103.76 12.1899L140.907 15.3115C150.219 16.0941 155.524 26.3301 150.793 34.3899C148.725 37.9123 148.479 42.2141 150.13 45.9497L175.312 102.92C177.057 106.867 177.478 111.273 176.513 115.479L168.25 151.484C165.868 161.86 155.775 168.552 145.29 166.707L107.716 160.094C103.67 159.382 99.5036 159.933 95.7821 161.672L55.6486 180.426C50.7585 182.711 45.1523 182.922 40.1038 181.012L20.8303 173.72C14.6758 171.391 10.0606 166.184 8.48781 159.794L4.59338 143.973C3.5591 139.771 3.91545 135.347 5.60896 131.365L18.0573 102.095C20.251 96.9368 20.1794 91.0947 17.8599 85.9917L2.14542 51.4199C0.119181 46.9622 -0.20131 41.916 1.2447 37.2377L4.35448 27.1767Z" fill="#D9D9D9"/>
</svg>
