<svg width="177" height="173" viewBox="0 0 177 173" fill="none" xmlns="http://www.w3.org/2000/svg">
<path d="M2.7582 21.5697C7.65339 13.411 18.0904 10.5305 26.4772 15.0235L31.0888 17.494C36.409 20.3441 42.7318 20.6392 48.2944 18.2971L75.9708 6.64387C76.9885 6.21536 78.04 5.87187 79.1144 5.61692L99.362 0.812395C104.272 -0.352606 109.44 0.381278 113.832 2.86692L126.624 10.1081C131.042 12.6087 136.245 13.3358 141.179 12.1421L143.34 11.6194C154.725 8.86496 166.029 16.4402 167.81 28.0174L176.023 81.3981C176.339 83.4534 176.333 85.5456 176.004 87.599L166.813 145.043C165.436 153.651 158.642 160.375 150.02 161.664L81.0159 171.975C78.6902 172.322 76.3214 172.257 74.0184 171.782L34.5252 163.632C23.5379 161.365 16.5643 150.505 19.0739 139.571L27.0129 104.979C27.9783 100.773 27.5572 96.3671 25.8123 92.4197L1.73901 37.9587C-0.605478 32.6548 -0.225352 26.5423 2.7582 21.5697Z" fill="#D9D9D9"/>
</svg>
