<svg width="174" height="167" viewBox="0 0 174 167" fill="none" xmlns="http://www.w3.org/2000/svg">
<path d="M10.7205 26.4225C13.711 20.5269 19.4216 16.4899 25.9771 15.6371L77 9L118.851 1.07024C122.542 0.370908 126.356 0.725224 129.855 2.09261L152.509 10.9459C161.487 14.4546 166.685 23.8681 164.872 33.3354L159.881 59.3992C159.302 62.4255 159.429 65.5447 160.254 68.5135L172.935 114.166C173.638 116.697 173.836 119.342 173.516 121.95L170.571 146.007C169.196 157.233 158.409 164.802 147.385 162.276C145.147 161.763 142.834 161.658 140.559 161.967L111.218 165.952C106.254 166.626 101.218 165.413 97.1058 162.552L78.2118 149.408C72.4902 145.428 65.109 144.713 58.7301 147.523L37.2886 156.965C25.5882 162.117 12.1239 155.12 9.61663 142.583L9.49523 141.976C9.16638 140.332 9.04562 138.653 9.13578 136.978L12.1577 80.8565C12.3804 76.721 11.3138 72.6184 9.10517 69.1151L4.04991 61.0964C0.297445 55.1442 -0.0511774 47.658 3.13188 41.3829L10.7205 26.4225Z" fill="#D9D9D9"/>
</svg>
