<svg width="171" height="192" viewBox="0 0 171 192" fill="none" xmlns="http://www.w3.org/2000/svg">
<path d="M5.5576 45.4055C7.345 32.9931 19.983 25.2687 31.8446 29.3388L49.3648 35.3507C55.9689 37.6168 63.2767 36.2748 68.6448 31.8103L100.316 5.4701C106.49 0.335399 115.136 -0.608885 122.273 3.07213L143.213 13.8731C151.782 18.293 155.978 28.1976 153.192 37.428L152.15 40.8769C150.763 45.4718 151.075 50.4123 153.028 54.7965L168.936 90.5007C171.208 95.5999 171.245 101.416 169.039 106.544L156.59 135.481C154.911 139.382 154.584 143.731 155.658 147.84C158.993 160.591 148.692 172.799 135.561 171.658L99.1661 168.493C95.4621 168.171 91.7417 168.887 88.4225 170.562L50.4951 189.703C44.0165 192.973 36.2752 192.477 30.2671 188.407L16.7521 179.251C11.8399 175.924 8.65869 170.587 8.06831 164.683L0.242673 86.4267C0.0814877 84.8149 0.116724 83.1894 0.347607 81.5861L5.5576 45.4055Z" fill="#D9D9D9"/>
</svg>
