<svg width="166" height="157" viewBox="0 0 166 157" fill="none" xmlns="http://www.w3.org/2000/svg">
<path d="M12.2769 25.0562C8.53334 15.4018 15.6564 5 26.0112 5H42.8286C43.9409 5 45.0513 5.0928 46.1482 5.27742L89.3009 12.5407C93.0241 13.1674 96.8487 12.7274 100.332 11.2715L122.992 1.80205C126.585 0.300095 130.54 -0.119694 134.369 0.594225L146.076 2.77682C153.404 4.14312 159.364 9.47173 161.54 16.6019L165.014 27.9915C166.302 32.2117 166.158 36.7392 164.604 40.869L149.407 81.2715C147.545 86.2212 147.72 91.7068 149.892 96.5284L163.579 126.908C165.769 131.767 165.928 137.299 164.022 142.276L163.379 143.954C160.193 152.273 151.889 157.482 143.013 156.73L101.253 153.191C99.7558 153.064 98.2776 152.769 96.8464 152.311L67.3877 142.884C63.5521 141.657 59.4353 141.616 55.5761 142.767L30.3565 150.288C19.3641 153.567 9.18268 143.213 12.6456 132.277C13.5273 129.493 13.5349 126.505 12.6673 123.716L1.70062 88.4663C0.589191 84.8938 0.502103 81.0813 1.44925 77.4618L12.7934 34.1109C13.5778 31.1135 13.397 27.945 12.2769 25.0562Z" fill="#D9D9D9"/>
</svg>
