<svg width="171" height="189" viewBox="0 0 171 189" fill="none" xmlns="http://www.w3.org/2000/svg">
<path d="M15.6457 38.8665C12.7051 29.2279 17.3948 18.907 26.5892 14.7824L53.6789 2.63005C60.0829 -0.242806 67.5243 0.451673 73.2862 4.45994L92.1361 17.573C96.2303 20.4211 101.241 21.6367 106.185 20.9815L136.375 16.9804C138.772 16.6628 141.206 16.7823 143.56 17.3333L145.367 17.756C155.584 20.1472 162.215 30.0281 160.558 40.3896L156.135 68.0328C155.716 70.6514 155.822 73.3273 156.447 75.9046L170.42 133.543C171.131 136.476 171.169 139.532 170.531 142.482L166.14 162.789C164.525 170.26 158.791 176.158 151.368 177.983L140.625 180.625C135.724 181.83 130.548 181.138 126.136 178.687L112.826 171.292C108.437 168.854 103.291 168.155 98.4102 169.336L76.5996 174.613C75.535 174.871 74.4934 175.215 73.4852 175.643L47.4739 186.689C41.8099 189.094 35.3539 188.758 29.9702 185.778L25.6007 183.359C16.9255 178.557 13.0972 168.074 16.5789 158.79C18.4434 153.818 18.263 148.285 16.0616 143.452L2.44332 113.558C0.239036 108.72 0.0522365 103.203 1.9242 98.2259L17.1043 57.869C18.6577 53.7392 18.8019 49.2117 17.5144 44.9915L15.6457 38.8665Z" fill="#D9D9D9"/>
</svg>
