<svg width="170" height="163" viewBox="0 0 170 163" fill="none" xmlns="http://www.w3.org/2000/svg">
<path d="M9.04943 16.474C10.757 6.94017 19.0506 0 28.7362 0H42.5L92.493 6.13122C94.4863 6.37568 96.505 6.31854 98.4813 5.96171L129.737 0.318243C130.91 0.106504 132.099 0 133.291 0H146C158.49 0 167.924 11.3213 165.672 23.6066L159.688 56.2474C159.233 58.7268 159.252 61.2697 159.742 63.7423L169.164 111.282C169.715 114.062 169.669 116.928 169.029 119.689L166.065 132.469C163.754 142.436 154.294 149.052 144.139 147.802L133.449 146.486C130.842 146.165 128.197 146.361 125.665 147.063L89.4854 157.088C88.4966 157.362 87.4882 157.56 86.4691 157.679L46.4753 162.359C42.8919 162.779 39.2618 162.221 35.9696 160.745L19.874 153.53C14.8486 151.277 10.9745 147.052 9.1652 141.85L1.11007 118.691C0.37523 116.579 0 114.358 0 112.121V68.7769C0 67.5946 0.104833 66.4147 0.313267 65.2509L9.04943 16.474Z" fill="#D9D9D9"/>
</svg>
