<svg width="154" height="168" viewBox="0 0 154 168" fill="none" xmlns="http://www.w3.org/2000/svg">
<path d="M8.43041 23.0159C9.96827 14.6276 16.656 8.13722 25.0866 6.8512L66.377 0.55266C68.7724 0.187262 71.2142 0.260195 73.5835 0.767903L109.928 8.55605C111.306 8.85119 112.71 9 114.119 9H127.222C140.524 9 149.238 22.9212 143.427 34.8864C140.678 40.5454 141.08 47.2283 144.488 52.5164L150.038 61.128C152.29 64.6223 153.397 68.7315 153.205 72.8841L150.601 129.313C150.534 130.765 150.647 132.233 150.932 133.659C153.37 145.848 142.902 156.853 130.636 154.842C127.282 154.292 123.841 154.715 120.72 156.059L98.4955 165.633C94.9104 167.177 90.9516 167.639 87.1073 166.96L43.7245 159.304C42.577 159.102 41.414 159 40.2488 159H28.315C15.5578 159 6.06143 147.217 8.77143 134.751L10.1172 128.561C10.6995 125.882 10.725 123.113 10.1921 120.424L0.74172 72.7423C0.251659 70.2697 0.233422 67.7268 0.687971 65.2474L8.43041 23.0159Z" fill="#D9D9D9"/>
</svg>
