<svg width="169" height="173" viewBox="0 0 169 173" fill="none" xmlns="http://www.w3.org/2000/svg">
<path d="M3.3674 26.3876C6.87797 14.8027 19.7945 8.96767 30.808 13.9914L33.3917 15.1699C36.7326 16.6938 40.4287 17.2686 44.0747 16.831L86.9028 11.6917C87.9659 11.5641 89.017 11.3514 90.046 11.0555L124.385 1.18319C127.097 0.403235 129.945 0.206387 132.739 0.605589L148.413 2.84469C155.57 3.86712 161.618 8.67246 164.232 15.4131L167.151 22.9428C168.678 26.8797 168.919 31.1987 167.841 35.2812L156.96 76.4736C156.006 80.0856 156.082 83.8925 157.181 87.4632L167.664 121.533C168.86 125.418 168.843 129.576 167.615 133.452L167.069 135.178C163.358 146.897 150.052 152.526 139.058 147.029L122.674 138.837C115.58 135.29 107.06 136.27 100.957 141.336L69.553 167.401C64.2341 171.816 57.0127 173.171 50.4551 170.985L20.4155 160.972C13.9284 158.809 8.99568 153.483 7.33722 146.849L0.59715 119.889C0.200547 118.302 0 116.673 0 115.038V40.4638C0 38.4987 0.289615 36.5443 0.859512 34.6636L3.3674 26.3876Z" fill="#D9D9D9"/>
</svg>
